<svg xmlns="http://www.w3.org/2000/svg" width="512" height="512" viewBox="0 0 24 24" fill="#000000"><g fill="none" stroke="#000000" stroke-linecap="round" stroke-linejoin="round" stroke-width="1.5" color="currentColor"><path d="M2.5 12c0-4.478 0-6.718 1.391-8.109S7.521 2.5 12 2.5c4.478 0 6.718 0 8.109 1.391S21.5 7.521 21.5 12c0 4.478 0 6.718-1.391 8.109S16.479 21.5 12 21.5c-4.478 0-6.718 0-8.109-1.391S2.5 16.479 2.5 12m7.5-2h1m-1 5h4"/><path d="M14.958 11.462v-.953c0-1.873 0-2.81-.476-3.466c-.9-1.243-2.649-1.029-4.003-1.029S7.376 5.8 6.475 7.044C6 7.7 6 8.635 6 10.508v2.497c0 2.354 0 3.531.729 4.263S8.63 18 10.977 18h3.71c2.598 0 3.637-1.828 3.226-4.431c-.245-1.55-1.582-2.107-2.955-2.107"/></g></svg>