<svg xmlns="http://www.w3.org/2000/svg" width="512" height="512" viewBox="0 0 1025 1024"><path fill="#495057" d="M960.356 1024h-128q-26 0-45-19t-19-45V832q0-26 19-45t45-19h128q26 0 45 19t19 45v128q0 27-18.5 45.5t-45.5 18.5zm0-384h-128q-26 0-45-18.5t-19-45.5V448q0-27 19-45.5t45-18.5h128q26 0 45 18.5t19 45.5v128q0 27-18.5 45.5t-45.5 18.5zm0-384h-128q-26 0-45-19t-19-45V64q0-27 19-45.5t45-18.5h128q26 0 45 18.5t19 45.5v128q0 26-18.5 45t-45.5 19zm-384 768h-128q-27 0-45.5-19t-18.5-45V832q0-26 19-45t45-19h128q27 0 45.5 19t18.5 45v128q0 27-18.5 45.5t-45.5 18.5zm0-384h-128q-27 0-45.5-18.5t-18.5-45.5V448q0-27 19-45.5t45-18.5h128q27 0 45.5 18.5t18.5 45.5v128q0 27-18.5 45.5t-45.5 18.5zm0-384h-128q-27 0-45.5-19t-18.5-45V64q0-27 19-45.5t45-18.5h128q27 0 45.5 18.5t18.5 45.5v128q0 26-18.5 45t-45.5 19zm-384 768h-128q-26 0-45-19t-19-45V832q0-26 19-45t45-19h128q26 0 45 19t19 45v128q0 27-18.5 45.5t-45.5 18.5zm0-384h-128q-26 0-45-18.5t-19-45.5V448q0-27 19-45.5t45-18.5h128q26 0 45 18.5t19 45.5v128q0 27-18.5 45.5t-45.5 18.5zm0-384h-128q-26 0-45-19t-19-45V64q0-27 19-45.5t45-18.5h128q26 0 45 18.5t19 45.5v128q0 26-18.5 45t-45.5 19z"/></svg>